<?xml version="1.0" encoding="iso-8859-1"?>
<!-- Uploaded to: SVG Repo, www.svgrepo.com, Generator: SVG Repo Mixer Tools -->
<!DOCTYPE svg PUBLIC "-//W3C//DTD SVG 1.1//EN" "http://www.w3.org/Graphics/SVG/1.1/DTD/svg11.dtd">
<svg fill="#000000" height="800px" width="800px" version="1.1" id="Capa_1" xmlns="http://www.w3.org/2000/svg" xmlns:xlink="http://www.w3.org/1999/xlink" 
	 viewBox="0 0 191.789 191.789" xml:space="preserve">
<g>
	<path d="M95.892,0C51.454,0,20.267,74.451,20.267,114.762c0,20.623,7.738,39.939,21.787,54.391
		c14.191,14.598,33.31,22.637,53.838,22.637c20.529,0,39.652-8.039,53.844-22.636c14.051-14.452,21.787-33.769,21.787-54.392
		C171.522,74.451,140.335,0,95.892,0z M156.522,114.762c0,34.781-26.631,62.027-60.631,62.027
		c-33.994,0-60.625-27.246-60.625-62.027c0-18.358,7.523-44.233,18.721-64.387C66.478,27.893,81.751,15,95.892,15
		c14.143,0,29.418,12.893,41.91,35.375C148.999,70.528,156.522,96.403,156.522,114.762z"/>
</g>
</svg>